<svg width="24" height="25" viewBox="0 0 24 25" fill="none" xmlns="http://www.w3.org/2000/svg">
<path d="M21 11.9494C21.0034 13.2692 20.6951 14.5713 20.1 15.7494C19.3944 17.1611 18.3098 18.3485 16.9674 19.1786C15.6251 20.0088 14.0782 20.4488 12.5 20.4494C11.1801 20.4528 9.87812 20.1444 8.7 19.5494L3 21.4494L4.9 15.7494C4.30493 14.5713 3.99656 13.2692 4 11.9494C4.00061 10.3711 4.44061 8.82422 5.27072 7.48192C6.10083 6.13962 7.28825 5.05494 8.7 4.34937C9.87812 3.7543 11.1801 3.44593 12.5 3.44937H13C15.0843 3.56436 17.053 4.44413 18.5291 5.92023C20.0052 7.39633 20.885 9.36502 21 11.4494V11.9494Z" stroke="#000" stroke-width="2" stroke-linecap="round" stroke-linejoin="round"/>
</svg>
