<svg width="25" height="25" viewBox="0 0 25 25" fill="none" xmlns="http://www.w3.org/2000/svg">
<path d="M22.5815 17.5243V20.5243C22.5826 20.8028 22.5256 21.0785 22.414 21.3337C22.3024 21.5889 22.1388 21.8179 21.9336 22.0062C21.7283 22.1945 21.486 22.3378 21.2222 22.4271C20.9584 22.5163 20.6788 22.5494 20.4015 22.5243C17.3243 22.19 14.3685 21.1385 11.7715 19.4543C9.3553 17.919 7.30681 15.8705 5.77148 13.4543C4.08145 10.8455 3.02972 7.87534 2.70148 4.78434C2.67649 4.50781 2.70935 4.22911 2.79798 3.96597C2.8866 3.70283 3.02905 3.46103 3.21624 3.25597C3.40344 3.0509 3.63128 2.88705 3.88527 2.77487C4.13925 2.66268 4.41382 2.60461 4.69148 2.60434H7.69148C8.17678 2.59957 8.64727 2.77142 9.01524 3.08788C9.38321 3.40433 9.62355 3.84379 9.69148 4.32434C9.8181 5.28441 10.0529 6.22707 10.3915 7.13435C10.526 7.49227 10.5551 7.88126 10.4754 8.25523C10.3956 8.62919 10.2103 8.97246 9.94148 9.24435L8.67148 10.5143C10.095 13.0179 12.1679 15.0908 14.6715 16.5143L15.9415 15.2443C16.2134 14.9755 16.5566 14.7902 16.9306 14.7104C17.3046 14.6307 17.6936 14.6598 18.0515 14.7943C18.9587 15.1329 19.9014 15.3677 20.8615 15.4943C21.3472 15.5629 21.7909 15.8076 22.108 16.1818C22.4251 16.5561 22.5936 17.0339 22.5815 17.5243Z" stroke="#000" stroke-width="2" stroke-linecap="round" stroke-linejoin="round"/>
</svg>
