<svg width="24" height="24" viewBox="0 0 24 24" fill="none" xmlns="http://www.w3.org/2000/svg">
<path d="M23 19C23 19.5304 22.7893 20.0391 22.4142 20.4142C22.0391 20.7893 21.5304 21 21 21H3C2.46957 21 1.96086 20.7893 1.58579 20.4142C1.21071 20.0391 1 19.5304 1 19V8C1 7.46957 1.21071 6.96086 1.58579 6.58579C1.96086 6.21071 2.46957 6 3 6H7L9 3H15L17 6H21C21.5304 6 22.0391 6.21071 22.4142 6.58579C22.7893 6.96086 23 7.46957 23 8V19Z" stroke="#000" stroke-width="2" stroke-linecap="round" stroke-linejoin="round"/>
<path d="M6.5 9V12H9.5" stroke="#000" stroke-linecap="round" stroke-linejoin="round"/>
<path d="M17.5 17V14H14.5" stroke="#000" stroke-linecap="round" stroke-linejoin="round"/>
<path d="M16.245 11.4999C15.9914 10.7833 15.5604 10.1426 14.9923 9.63762C14.4241 9.13263 13.7373 8.7798 12.9959 8.61204C12.2544 8.44429 11.4826 8.46709 10.7524 8.6783C10.0222 8.88952 9.35737 9.28227 8.82 9.81992L6.5 11.9999M17.5 13.9999L15.18 16.1799C14.6426 16.7176 13.9778 17.1103 13.2476 17.3215C12.5174 17.5327 11.7456 17.5555 11.0041 17.3878C10.2627 17.22 9.5759 16.8672 9.00773 16.3622C8.43957 15.8572 8.00858 15.2165 7.755 14.4999" stroke="#000" stroke-linecap="round" stroke-linejoin="round"/>
</svg>
